<?xml version="1.0" encoding="UTF-8"?> <svg xmlns="http://www.w3.org/2000/svg" id="Layer_1" data-name="Layer 1" viewBox="0 0 488.45 410.66"><path d="M393.88,22.45l-11.16,4A4,4,0,0,1,380,18.91l11.17-4a4,4,0,0,1,2.71,7.56Z" transform="translate(0 4.15)" fill="#6c63ff"></path><path d="M150.62-4a30.59,30.59,0,0,0,21.21,6.91c.76,0,.79,1.14,0,1.19A31.82,31.82,0,0,1,149.8-3.15c-.59-.48.23-1.34.82-.85Z" transform="translate(0 4.15)" fill="#fff"></path><path d="M.42,292H487.6V10a8,8,0,0,0-8-8H8.4a8,8,0,0,0-8,8Z" transform="translate(0 4.15)" fill="#001d2f"></path><rect x="15.48" y="17.18" width="457.08" height="259.49" fill="#fff"></rect><path d="M0,284.4v34.8a11,11,0,0,0,11,11H190.8v68.69h-2.39A1.42,1.42,0,0,0,187,400.3h0v4.77a1.42,1.42,0,0,0,1.42,1.43H300a1.43,1.43,0,0,0,1.43-1.43h0v-4.77a1.43,1.43,0,0,0-1.43-1.43h-2.39V330.19H477.47a11,11,0,0,0,11-11h0V284.4Z" transform="translate(0 4.15)" fill="#001d2f"></path><path d="M355.41,81.82H139a5.15,5.15,0,1,1,0-10.29H355.41a5.15,5.15,0,1,1,0,10.29Z" transform="translate(0 4.15)" fill="#e6e6e6"></path><path d="M277.79,105h-71.2a5.15,5.15,0,1,1,0-10.29h71.2a5.15,5.15,0,0,1,0,10.29Z" transform="translate(0 4.15)" fill="#e6e6e6"></path><path d="M278.79,200.15h-71.2a5.15,5.15,0,1,1,0-10.29h71.2a5.15,5.15,0,0,1,0,10.29Z" transform="translate(0 4.15)" fill="#e6e6e6"></path><path d="M277.79,226.28h-71.2a5.15,5.15,0,1,1,0-10.29h71.22a5.15,5.15,0,0,1,0,10.29Z" transform="translate(0 4.15)" fill="#e6e6e6"></path><path d="M317.72,178.27H166.66a5.15,5.15,0,1,1,0-10.29H317.72a5.15,5.15,0,0,1,0,10.29Z" transform="translate(0 4.15)" fill="#e6e6e6"></path><path d="M257.81,255.69H232a8.75,8.75,0,1,1,0-17.5h25.85a8.75,8.75,0,0,1,0,17.5Z" transform="translate(0 4.15)" fill="#0f866c"></path><path d="M70.54,35.49c22.15,0,40.12,17.56,40.12,39.24S92.71,114,70.56,114,30.44,96.43,30.43,74.75A38.85,38.85,0,0,1,42.18,47,40.45,40.45,0,0,1,70.54,35.49Zm-.26,47.38L64.44,98.66a3.21,3.21,0,0,1-1.68,1.81,3.29,3.29,0,0,1-4.34-1.54,3.12,3.12,0,0,1-.11-2.45l4.07-11a16.35,16.35,0,0,0,.76-2.56,23.77,23.77,0,0,0,.35-2.67c.16-1.61.27-3.36.36-5s.14-3.31.19-4.66c.06-1.68-.41-1.79-1.79-2.11L62,68.35,50.22,66.19a3.29,3.29,0,0,1-2.11-1.32A3.15,3.15,0,0,1,49,60.43a3.3,3.3,0,0,1,2.45-.5L64,62.25l1.51.15a36.7,36.7,0,0,0,4.68.34,54.22,54.22,0,0,0,5.84-.42c.59-.07,1.14-.14,1.7-.19L89.67,60a3.31,3.31,0,0,1,2.45.45A3.15,3.15,0,0,1,93,64.83l0,0a3.24,3.24,0,0,1-2.09,1.33L79.49,68.3q-.57.12-1,.18c-1.19.2-1.78.31-1.71,2,.06,1.21.21,2.65.4,4.16.23,1.77.53,3.64.84,5.36a27.84,27.84,0,0,0,.66,2.91c.26.87.51,1.75.9,2.82l4,10.79a3.18,3.18,0,0,1-2,4.1,3.33,3.33,0,0,1-2.5-.11,3.18,3.18,0,0,1-1.68-1.81L71.56,82.9l-.66-1.17-.65,1.14Zm.26-34.18a5.64,5.64,0,1,1-5.76,5.64,5.58,5.58,0,0,1,1.68-4A5.82,5.82,0,0,1,70.54,48.69Zm23.72,2.83a34.08,34.08,0,0,0-47.46-.08,32.34,32.34,0,0,0-.08,46.44A34.08,34.08,0,0,0,94.18,98a32.34,32.34,0,0,0,.08-46.44Z" transform="translate(0 4.15)" fill="#0f866c"></path><path d="M426.76,71a5.29,5.29,0,0,0,2.07,7.3,5.24,5.24,0,0,0,3.74.75h0a20,20,0,0,1-5.81,14.06h0a23,23,0,0,1-3-4.12,18.75,18.75,0,0,1-2.63-9.93,27.51,27.51,0,0,1,.38-3.94h0a8,8,0,0,1,.56-1.31A5.28,5.28,0,0,1,426.76,71Zm0,0a5.29,5.29,0,0,0-7.3-2.07A5.77,5.77,0,0,0,417,71.79V72c0-.18-.19-.18-.19-.18A19.23,19.23,0,0,1,407.65,60h0a15.06,15.06,0,0,1,5.06-.75,20.45,20.45,0,0,1,12.74,4.68h0A5.49,5.49,0,0,1,426.76,71a5.45,5.45,0,0,0,5.44-5.44A5,5,0,0,0,430.89,62h0c.19,0,.19,0,.19-.19a20.12,20.12,0,0,1,15-1.87h0a24.32,24.32,0,0,1-2.06,4.5,19.54,19.54,0,0,1-10.87,9h0A5.7,5.7,0,0,1,426.76,71Zm10.88,6.18A25,25,0,0,0,448.7,67.1a24.27,24.27,0,0,0,3.18-10.68h0a25.33,25.33,0,0,0-23.43.93l-1.69,1.13h0A24.13,24.13,0,0,0,412.71,54a25.67,25.67,0,0,0-10.87,2.44v.18a24.61,24.61,0,0,0,12.37,19.68,7.47,7.47,0,0,0,1.68.94h0a24.92,24.92,0,0,0,3.38,14.43,24.45,24.45,0,0,0,7.5,8.25h0a24.94,24.94,0,0,0,11.06-20.81,7,7,0,0,0-.19-1.87Z" transform="translate(0 4.15)" fill="#0e8168" fill-rule="evenodd"></path><path d="M415.33,110.39c-14.24-1.49-25.67-12.74-26.42-27,0-2.81-.19-5.62-.19-8.43V72.72c0-2.81.19-5.62.19-8.43.75-14.25,12.18-25.49,26.42-27,3.94-.19,7.69-.38,11.44-.38,3.93,0,7.68.19,11.43.38,14.25,1.5,25.68,12.74,26.43,27,.19,2.81.19,5.62.37,8.43V75c0,2.81-.18,5.62-.37,8.43-.75,14.25-12.18,25.49-26.43,27-3.75.19-7.5.38-11.43.38-3.75,0-7.5-.19-11.44-.38Zm11.43-4.87A112.52,112.52,0,0,0,438.2,105a23.14,23.14,0,0,0,21.18-21.55c.19-2.82.19-5.63.19-8.44V72.72c0-2.81,0-5.62-.19-8.43A23.29,23.29,0,0,0,438.2,42.74a112.49,112.49,0,0,0-11.44-.57c-3.74,0-7.68.19-11.43.57a23.27,23.27,0,0,0-21,21.55c-.19,2.81-.37,5.62-.37,8.43V75c0,2.81.18,5.62.37,8.44a23.12,23.12,0,0,0,21,21.55c3.75.37,7.69.56,11.43.56Z" transform="translate(0 4.15)" fill="#0e8168" fill-rule="evenodd"></path></svg> 