<?xml version="1.0" encoding="utf-8"?>
<!-- Generator: Adobe Illustrator 24.2.3, SVG Export Plug-In . SVG Version: 6.00 Build 0)  -->
<svg version="1.1" id="Layer_1" xmlns="http://www.w3.org/2000/svg" xmlns:xlink="http://www.w3.org/1999/xlink" x="0px" y="0px"
	 viewBox="0 0 894.2 448.3" style="enable-background:new 0 0 894.2 448.3;" xml:space="preserve">
<style type="text/css">
	.st0{fill:#F0F0F0;}
	.st1{fill:#001D2F;}
	.st2{fill:#FFB6B6;}
	.st3{fill:#E6E6E6;}
	.st4{fill:#FFFFFF;}
	.st5{fill:#3F3D56;}
	.st6{fill:#0F866C;}
</style>
<path class="st0" d="M294.5,448.3c-27,0-53.9-0.5-80.8-1.5c-38.4-1.4-78.2-2.8-115.1-23.3c-25.8-14.3-48.7-37.3-66.2-66.5
	C20.7,337.2,12.1,315.8,7,293.4c-9.6-40.7-9.2-83.2,1-123.8c3.6-13.9,8.5-27.4,14.7-40.4C49.6,73.4,98.8,36,157.5,26.5
	c0.5-0.1,1-0.1,1.5,0c0.3,0,0.5,0,0.8,0l0.3-0.1c0.9-0.3,1.8-0.5,2.7-0.7c90.6-13.5,186.4,13.8,277,78.9
	c70,50.4,162.9,77.5,283.8,82.9l1.7,0.1c33.7,1.9,66.2,15.8,94.2,40.1c27.6,24,48.3,56,59.9,92.6c1.4,4.5,2.7,9.1,3.9,13.8
	c2.2,8.9-0.4,18.3-6.9,24.7l0,0l-0.3,0.3c-0.7,0.7-1.5,1.4-2.3,2.1l-0.9,0.8c-7.7,6.4-13.8,11.4-21.1,15.3
	c-4.9,2.6-10.1,4.5-15.4,5.8c-29.5,7.2-59.4,13.9-88.9,19.8C689.9,414.4,631,424,572.2,431.2C480.1,442.6,387.3,448.3,294.5,448.3z
	 M158.3,28.4c-0.2,0-0.4,0-0.5,0C99.5,37.9,50.8,75,24.2,130.2c-6.2,12.8-11.1,26.2-14.6,40c-10.1,40.2-10.4,82.3-0.9,122.7
	c5.1,22.2,13.6,43.4,25.1,63c17.3,28.9,39.9,51.6,65.5,65.8c36.6,20.3,76.2,21.7,114.4,23.1c119.7,4.3,239.5-0.9,358.3-15.6
	c58.8-7.2,117.6-16.8,175-28.3c29.5-6,59.4-12.6,88.9-19.8c5.2-1.2,10.3-3.2,15-5.7c7.2-3.8,13.2-8.8,20.8-15.1l0.9-0.8
	c0.7-0.5,1.3-1.1,2-1.8l0.2-0.2c6.3-6.3,8.7-14.7,6.7-22.9l0,0c-1.1-4.6-2.4-9.2-3.8-13.6c-23.7-74.8-85-127.6-152.5-131.4l-1.7-0.1
	c-55.2-2.5-103.6-9.3-147.8-21c-52.8-13.9-98.8-34.8-136.9-62.2C348.6,41.4,253.2,14.2,163,27.6c-0.8,0.1-1.7,0.4-2.5,0.6l-0.6,0.2
	c-0.4,0-0.7,0-1.1,0L158.3,28.4L158.3,28.4z"/>
<path class="st1" d="M279.3,146.1c-2.5-2.4-5.1-15.8-8.2-17.1c2.4,5.3,0.7,6.7,0.6,12.4c0,3.3-0.4,6.6-1.1,9.8h-54V109
	c0-15.9,12.9-28.8,28.8-28.8c0,0,0,0,0,0l0,0c1.4,0,2.9,0.2,4.3,0.6c9.4,2.6,16.8,9.9,19.3,19.4
	C273.1,115.2,279.7,140.3,279.3,146.1z"/>
<path class="st2" d="M219.7,197.9v-32.9l-19.3,1.7l6.8,20.7l-3.2,52.1c-4.4,1-7.1,5.4-6.1,9.8c1,4.4,5.4,7.1,9.8,6.1
	c4.1-1,6.8-4.9,6.2-9L219.7,197.9z"/>
<polygon class="st2" points="257.7,432.8 265.5,432.8 269.3,402.7 257.7,402.7 "/>
<path class="st1" d="M255.1,428.9l12.3-0.7v5.3l11.7,8.1c1.5,1,1.9,3.1,0.8,4.6c-0.6,0.9-1.6,1.4-2.7,1.4h-14.7l-2.5-5.2l-1,5.2
	h-5.5L255.1,428.9z"/>
<polygon class="st2" points="212.6,432.8 220.4,432.8 224.1,402.7 212.6,402.7 "/>
<path class="st1" d="M210,428.9l12.3-0.7v5.3l11.7,8.1c1.5,1,1.9,3.1,0.8,4.6c-0.6,0.9-1.6,1.4-2.7,1.4h-14.7l-2.5-5.2l-1,5.2h-5.5
	L210,428.9z"/>
<path class="st3" d="M250.8,129.6l-16.2,0.3l-11.4,12l-9.1,1.4c-8.5,1.2-15,8.3-15.6,16.9l0,0l1.6,8.7h9.5l5.5,32.3
	c-2.1,5.4-2.3,9.8,2.1,11.4l13.6,25.7l40.3-18.1c2-3.5,2.7-7,0.6-10.5l2.9-49.4h9.7c0-9.2-3.1-17-12.3-18.1c-3.7-0.4-7.3-0.6-11-0.6
	L250.8,129.6z"/>
<path class="st1" d="M271.1,220.2c0,0-39.3,7-53.9-7.6c0,0-1.5,2.5-3.7,6.7c-0.6,1.2-1.9,2-2.6,3.5s-2.4,2.9-3.2,4.4
	c-0.6,1.2,0.4,2.8-0.3,4.1c-7.4,15.7-16.2,37.8-14.3,52.4c1.2,9.4,3.7,31.3,6.3,54.8c0.2,1.8-1.4,4.2-1.2,6s2.3,3,2.4,4.7
	c0.1,1.2-1.3,2.3-1.2,3.5s1.9,2.5,2,3.8c3.6,32.5,6.9,62.8,6.9,62.8h18.4l3.5-69.2l-2.8-25.2l6.6-51l9.2,48.5l1.2,27.3l9.7,71h17
	V352l1.3-3.6l-1.3-4.6l1.3-4.9l-1.3-5.4L271.1,220.2z"/>
<path class="st2" d="M255.8,120.2c-6.1,8.1-17.6,9.7-25.7,3.6c-8.1-6.1-9.7-17.6-3.6-25.7c6.1-8.1,17.6-9.7,25.7-3.6
	c3.4,2.6,5.8,6.2,6.8,10.4c0.1,0.2,0.1,0.4,0.1,0.7C260.1,110.7,258.9,116,255.8,120.2z"/>
<path class="st1" d="M251.9,109.7c-0.4-2-1.4-3.7-2.8-5.1c0.1,1.9-0.1,3.7-0.8,5.5c-4.8,0.4-9.7-0.5-14-2.8c-3.2-2.2-7.4-2-12.1,0
	c0-9.8,7.9-17.7,17.7-17.8c0,0,0,0,0.1,0h3.2c9.8,0,17.8,7.9,17.8,17.8l0,0C258,108.4,255,109.2,251.9,109.7z"/>
<circle class="st0" cx="113.2" cy="285" r="51"/>
<circle class="st0" cx="438.2" cy="51" r="51"/>
<circle class="st0" cx="843.2" cy="293" r="51"/>
<path class="st4" d="M244.1,270.4H110.3c-4,0-7.2-3.2-7.2-7.2V198c0-4,3.2-7.2,7.2-7.2h133.8c4,0,7.2,3.2,7.2,7.2v65.2
	C251.3,267.2,248.1,270.4,244.1,270.4C244.1,270.4,244.1,270.4,244.1,270.4z"/>
<path class="st5" d="M244.1,270.4H110.3c-4,0-7.2-3.2-7.2-7.2V198c0-4,3.2-7.2,7.2-7.2h133.8c4,0,7.2,3.2,7.2,7.2v65.2
	C251.3,267.2,248.1,270.4,244.1,270.4C244.1,270.4,244.1,270.4,244.1,270.4z M110.3,192.9c-2.9,0-5.2,2.3-5.2,5.2v65.2
	c0,2.9,2.3,5.2,5.2,5.2h133.8c2.9,0,5.2-2.3,5.2-5.2V198c0-2.9-2.3-5.2-5.2-5.2L110.3,192.9z"/>
<path class="st6" d="M184.4,260.8c-26.4,0-53.9-0.2-64.2-0.4c-2.8-0.1-5.1-2.3-5.1-5.1v-54c0-1,0.8-1.8,1.8-1.8l0,0h120.5
	c1,0,1.8,0.8,1.8,1.8c0,0,0,0,0,0v36.6c0,12.4-10,22.5-22.5,22.8C207.2,260.7,195.9,260.8,184.4,260.8z"/>
<path class="st5" d="M230.3,234.5H121.4c-1.9,0-3.5-1.2-4.2-2.9L104.9,197c-0.8-2.3,0.4-4.8,2.7-5.6c0,0,0,0,0,0
	c0.5-0.2,1-0.3,1.5-0.3l136.1-0.2c2.4,0,4.4,2,4.4,4.4c0,0.3,0,0.5-0.1,0.8h0.1l-0.4,0.9l0,0l-14.9,34.8
	C233.6,233.4,232,234.5,230.3,234.5z M245.2,192.9l-136.1,0.2c-1.3,0-2.4,1.1-2.4,2.4c0,0,0,0,0,0c0,0.3,0,0.5,0.1,0.8l12.3,34.6
	c0.3,1,1.3,1.6,2.3,1.6h108.9c1,0,1.8-0.6,2.2-1.5l14.9-34.8l0.7,0.3l-0.7-0.3c0.5-1.2,0-2.7-1.3-3.2c0,0,0,0,0,0
	C245.8,192.9,245.5,192.9,245.2,192.9z"/>
<circle class="st4" cx="177" cy="233.5" r="8.5"/>
<circle class="st4" cx="499" cy="159.5" r="8.5"/>
<path class="st2" d="M283.8,190.3v-32.9l-19.3,1.7l6.8,20.7l-24.8,37.5c-4.4,1-7.2,5.4-6.2,9.8c1,4.4,5.4,7.2,9.8,6.2
	c4.1-0.9,6.9-4.9,6.3-9.1L283.8,190.3z"/>
</svg>
