<?xml version="1.0" encoding="utf-8"?>
<!-- Generator: Adobe Illustrator 24.2.3, SVG Export Plug-In . SVG Version: 6.00 Build 0)  -->
<svg version="1.1" id="Layer_1" xmlns="http://www.w3.org/2000/svg" xmlns:xlink="http://www.w3.org/1999/xlink" x="0px" y="0px"
	 viewBox="0 0 894.2 448.3" enable-background="new 0 0 894.2 448.3" xml:space="preserve">
<path fill="#F0F0F0" d="M294.5,448.3c-27,0-53.9-0.5-80.8-1.5c-38.4-1.4-78.2-2.8-115.1-23.3c-25.8-14.3-48.7-37.3-66.2-66.5
	C20.7,337.2,12.1,315.8,7,293.4c-9.6-40.7-9.2-83.2,1-123.8c3.6-13.9,8.5-27.4,14.7-40.4C49.6,73.4,98.8,36,157.5,26.5
	c0.5-0.1,1-0.1,1.5,0c0.3,0,0.5,0,0.8,0l0.3-0.1c0.9-0.3,1.8-0.5,2.7-0.7c90.6-13.5,186.4,13.8,277,78.9
	c70,50.4,162.9,77.5,283.8,82.9l1.7,0.1c33.7,1.9,66.2,15.8,94.2,40.1c27.6,24,48.3,56,59.9,92.6c1.4,4.5,2.7,9.1,3.9,13.8
	c2.2,8.9-0.4,18.3-6.9,24.7l0,0l-0.3,0.3c-0.7,0.7-1.5,1.4-2.3,2.1l-0.9,0.8c-7.7,6.4-13.8,11.4-21.1,15.3
	c-4.9,2.6-10.1,4.5-15.4,5.8c-29.5,7.2-59.4,13.9-88.9,19.8C689.9,414.4,631,424,572.2,431.2C480.1,442.6,387.3,448.3,294.5,448.3z
	 M158.3,28.4c-0.2,0-0.4,0-0.5,0C99.5,37.9,50.8,75,24.2,130.2c-6.2,12.8-11.1,26.2-14.6,40c-10.1,40.2-10.4,82.3-0.9,122.7
	c5.1,22.2,13.6,43.4,25.1,63c17.3,28.9,39.9,51.6,65.5,65.8c36.6,20.3,76.2,21.7,114.4,23.1c119.7,4.3,239.5-0.9,358.3-15.6
	c58.8-7.2,117.6-16.8,175-28.3c29.5-6,59.4-12.6,88.9-19.8c5.2-1.2,10.3-3.2,15-5.7c7.2-3.8,13.2-8.8,20.8-15.1l0.9-0.8
	c0.7-0.5,1.3-1.1,2-1.8l0.2-0.2c6.3-6.3,8.7-14.7,6.7-22.9l0,0c-1.1-4.6-2.4-9.2-3.8-13.6c-23.7-74.8-85-127.6-152.5-131.4l-1.7-0.1
	c-55.2-2.5-103.6-9.3-147.8-21c-52.8-13.9-98.8-34.8-136.9-62.2C348.6,41.4,253.2,14.2,163,27.6c-0.8,0.1-1.7,0.4-2.5,0.6l-0.6,0.2
	c-0.4,0-0.7,0-1.1,0L158.3,28.4L158.3,28.4z"/>
<circle fill="#F0F0F0" cx="113.2" cy="285" r="51"/>
<circle fill="#F0F0F0" cx="438.2" cy="51" r="51"/>
<circle fill="#F0F0F0" cx="843.2" cy="293" r="51"/>
<circle fill="#FFFFFF" cx="177" cy="233.5" r="8.5"/>
<circle fill="#FFFFFF" cx="499" cy="159.5" r="8.5"/>
</svg>
