<svg xmlns="http://www.w3.org/2000/svg" viewBox="0 0 78 58.05"><g id="Layer_2" data-name="Layer 2"><g id="Layer_1-2" data-name="Layer 1"><path d="M78,3.63V54.42a3.63,3.63,0,0,1-3.63,3.63H3.63A3.63,3.63,0,0,1,0,54.42H0V3.63A3.38,3.38,0,0,1,.22,2.41,3.58,3.58,0,0,1,3.09.05a3.29,3.29,0,0,1,.54,0H74.37a3.29,3.29,0,0,1,.54.05,3.58,3.58,0,0,1,2.87,2.36A3.38,3.38,0,0,1,78,3.63Z" fill="#0f866c"/><path d="M77.78,2.41,40.08,30.47a1.77,1.77,0,0,1-2.16,0L.22,2.41A3.58,3.58,0,0,1,3.09.05L39,26.76,74.91.05A3.58,3.58,0,0,1,77.78,2.41Z" fill="#fff"/></g></g></svg>