<svg id="Layer_1" data-name="Layer 1" xmlns="http://www.w3.org/2000/svg" viewBox="0 0 126.09 125"><g id="Layer_2" data-name="Layer 2"><g id="Layer_1-2" data-name="Layer 1-2"><path d="M96.39,122.24l-.6,1.58q-4.23-1.6-8.2-3.22c-46.88-19.13-69.26-41.52-84.23-84h0q-1.06-3-2.07-6.14L2.87,30a25.73,25.73,0,0,0,2.3,5.78Q6.4,39.28,7.7,42.59C21.77,78.46,42.52,99,82.3,116.27c2,.87,4,1.74,6.15,2.59A26.08,26.08,0,0,0,96.39,122.24Z" transform="translate(0)" fill="#0f866c"/><path d="M122.52,99.71h0a12,12,0,0,1,.1,17l0,0A27.85,27.85,0,0,1,102.87,125h-.17a27.64,27.64,0,0,1-15.11-4.43A26.91,26.91,0,0,1,83,117c-.25-.25-.5-.5-.74-.76a28,28,0,0,1,.49-38.84,11.91,11.91,0,0,1,8.46-3.56h.08a11.88,11.88,0,0,1,8.43,3.46l22.77,22.48ZM121.2,115.3a26.09,26.09,0,0,1-32.76,3.48,27.06,27.06,0,0,1-4-3.25,26,26,0,0,1-.23-36.77h0a9.88,9.88,0,0,1,7.06-3h.06a9.92,9.92,0,0,1,7,2.88l22.81,22.52a10,10,0,0,1,.09,14.14Z" transform="translate(0)" fill="#0f866c"/><path d="M47.78,25.91h0a12,12,0,0,1,.11,17l0,0a27.85,27.85,0,0,1-19.75,8.33H28A27.82,27.82,0,0,1,8.31,43.16c-.22-.22-.44-.44-.63-.66a27.43,27.43,0,0,1-4.33-5.93h0a28.08,28.08,0,0,1,4.72-33A11.93,11.93,0,0,1,16.54,0h.07A11.94,11.94,0,0,1,25,3.46L47.81,26ZM46.49,41.52a25.86,25.86,0,0,1-18.35,7.73H28A26,26,0,0,1,9.48,5a10,10,0,0,1,14.14-.09L46.39,27.37a10,10,0,0,1,.11,14.14Z" transform="translate(0)" fill="#0f866c"/><rect x="48.86" y="39.22" width="2" height="73" transform="translate(-39.05 57.99) rotate(-45.36)" fill="#0f866c"/></g></g></svg>